<svg xmlns="http://www.w3.org/2000/svg" xmlns:xlink="http://www.w3.org/1999/xlink" xmlns:lucid="lucid" width="795" height="1100"><g transform="translate(-344 -40)" lucid:page-tab-id="0_0"><path d="M420 306a6 6 0 0 1 6-6h148a6 6 0 0 1 6 6v68a6 6 0 0 1-6 6H426a6 6 0 0 1-6-6z" stroke="#3a414a" fill-opacity="0"/><use xlink:href="#a" transform="matrix(1,0,0,1,432,312) translate(36.54938271604939 31.77777777777778)"/><path d="M380 446a6 6 0 0 1 6-6h228a6 6 0 0 1 6 6v68a6 6 0 0 1-6 6H386a6 6 0 0 1-6-6z" stroke="#3a414a" fill-opacity="0"/><use xlink:href="#b" transform="matrix(1,0,0,1,392,452) translate(11.271604938271608 31.77777777777778)"/><path d="M420 866a6 6 0 0 1 6-6h148a6 6 0 0 1 6 6v68a6 6 0 0 1-6 6H426a6 6 0 0 1-6-6z" stroke="#3a414a" fill-opacity="0"/><use xlink:href="#c" transform="matrix(1,0,0,1,432,872) translate(41.48765432098766 31.77777777777778)"/><path d="M500 381v42.12" stroke="#3a414a" fill="none"/><path d="M500.5 381h-1v-.5h1z" stroke="#3a414a" stroke-width=".05" fill="#3a414a"/><path d="M500 437.88l-4.63-14.26h9.26z" stroke="#3a414a" fill="#3a414a"/><path d="M640 306.5a6 6 0 0 1 6-6h148a6 6 0 0 1 6 6v68a6 6 0 0 1-6 6H646a6 6 0 0 1-6-6z" stroke="#3a414a" fill-opacity="0"/><use xlink:href="#d" transform="matrix(1,0,0,1,652,312.4999500000001) translate(16.919753086419753 31.77777777777778)"/><path d="M500 521v42.12" stroke="#3a414a" fill="none"/><path d="M500.5 521h-1v-.5h1z" stroke="#3a414a" stroke-width=".05" fill="#3a414a"/><path d="M500 577.88l-4.63-14.26h9.26z" stroke="#3a414a" fill="#3a414a"/><path d="M420 586a6 6 0 0 1 6-6h148a6 6 0 0 1 6 6v68a6 6 0 0 1-6 6H426a6 6 0 0 1-6-6z" stroke="#3a414a" fill-opacity="0"/><use xlink:href="#e" transform="matrix(1,0,0,1,432,592) translate(35.96296296296296 31.77777777777778)"/><path d="M500 661v42.12" stroke="#3a414a" fill="none"/><path d="M500.5 661h-1v-.5h1z" stroke="#3a414a" stroke-width=".05" fill="#3a414a"/><path d="M500 717.88l-4.63-14.26h9.26z" stroke="#3a414a" fill="#3a414a"/><path d="M420 726a6 6 0 0 1 6-6h148a6 6 0 0 1 6 6v68a6 6 0 0 1-6 6H426a6 6 0 0 1-6-6z" stroke="#3a414a" fill-opacity="0"/><use xlink:href="#f" transform="matrix(1,0,0,1,432,732) translate(39.66666666666667 31.77777777777778)"/><path d="M720 381.5v641.62" stroke="#3a414a" fill="none"/><path d="M720.5 381.5h-1v-.5h1z" stroke="#3a414a" stroke-width=".05" fill="#3a414a"/><path d="M720 1037.88l-4.63-14.26h9.26z" stroke="#3a414a" fill="#3a414a"/><path d="M640 1046a6 6 0 0 1 6-6h148a6 6 0 0 1 6 6v68a6 6 0 0 1-6 6H646a6 6 0 0 1-6-6z" stroke="#3a414a" fill-opacity="0"/><use xlink:href="#g" transform="matrix(1,0,0,1,652,1052) translate(28.586419753086417 31.77777777777778)"/><path d="M720 381.5V464a6 6 0 0 0 6 6h116.12" stroke="#3a414a" fill="none"/><path d="M720.5 381.5h-1v-.5h1z" stroke="#3a414a" stroke-width=".05" fill="#3a414a"/><path d="M856.88 470l-14.26 4.63v-9.26z" stroke="#3a414a" fill="#3a414a"/><path d="M859 436a6 6 0 0 1 6-6h148a6 6 0 0 1 6 6v68a6 6 0 0 1-6 6H865a6 6 0 0 1-6-6z" stroke="#3a414a" fill-opacity="0"/><use xlink:href="#h" transform="matrix(1,0,0,1,871.0000999999988,442) translate(33.4320987654321 31.77777777777778)"/><path d="M939 511v43a6 6 0 0 1-6 6h-88a6 6 0 0 0-6 6v27.12" stroke="#3a414a" fill="none"/><path d="M939.5 511h-1v-.5h1z" stroke="#3a414a" stroke-width=".05" fill="#3a414a"/><path d="M839 607.88l-4.63-14.26h9.26z" stroke="#3a414a" fill="#3a414a"/><path d="M759 616a6 6 0 0 1 6-6h148a6 6 0 0 1 6 6v68a6 6 0 0 1-6 6H765a6 6 0 0 1-6-6z" stroke="#3a414a" fill-opacity="0"/><use xlink:href="#i" transform="matrix(1,0,0,1,771.0000999999988,622) translate(20.5 31.77777777777778)"/><path d="M939 511v43a6 6 0 0 0 6 6h88a6 6 0 0 1 6 6v27.12" stroke="#3a414a" fill="none"/><path d="M939.5 511h-1v-.5h1z" stroke="#3a414a" stroke-width=".05" fill="#3a414a"/><path d="M1039 607.88l-4.63-14.26h9.27z" stroke="#3a414a" fill="#3a414a"/><path d="M959 616a6 6 0 0 1 6-6h148a6 6 0 0 1 6 6v68a6 6 0 0 1-6 6H965a6 6 0 0 1-6-6z" stroke="#3a414a" fill-opacity="0"/><use xlink:href="#j" transform="matrix(1,0,0,1,971.0000999999988,622) translate(16.796296296296298 31.77777777777778)"/><path d="M839 691v168a6 6 0 0 1-6 6H726a6 6 0 0 0-6 6v152.12" stroke="#3a414a" fill="none"/><path d="M839.5 691h-1v-.5h1z" stroke="#3a414a" stroke-width=".05" fill="#3a414a"/><path d="M720 1037.88l-4.63-14.26h9.26z" stroke="#3a414a" fill="#3a414a"/><path d="M500 941v43a6 6 0 0 0 6 6h208a6 6 0 0 1 6 6v27.12" stroke="#3a414a" fill="none"/><path d="M500.5 941h-1v-.5h1z" stroke="#3a414a" stroke-width=".05" fill="#3a414a"/><path d="M720 1037.88l-4.63-14.26h9.26z" stroke="#3a414a" fill="#3a414a"/><path d="M500 801v42.12" stroke="#3a414a" fill="none"/><path d="M500.5 801h-1v-.5h1z" stroke="#3a414a" stroke-width=".05" fill="#3a414a"/><path d="M500 857.88l-4.63-14.26h9.26z" stroke="#3a414a" fill="#3a414a"/><path d="M400 386a6 6 0 0 1 6-6h108a6 6 0 0 1 6 6v48a6 6 0 0 1-6 6H406a6 6 0 0 1-6-6z" stroke="#000" stroke-opacity="0" fill-opacity="0"/><use xlink:href="#k" transform="matrix(1,0,0,1,405,385) translate(21.98765432098766 29.84722222222222)"/><path d="M400 526a6 6 0 0 1 6-6h108a6 6 0 0 1 6 6v48a6 6 0 0 1-6 6H406a6 6 0 0 1-6-6z" stroke="#000" stroke-opacity="0" fill-opacity="0"/><use xlink:href="#l" transform="matrix(1,0,0,1,405,525) translate(19.543209876543223 29.84722222222222)"/><path d="M400 666a6 6 0 0 1 6-6h88a6 6 0 0 1 6 6v48a6 6 0 0 1-6 6h-88a6 6 0 0 1-6-6z" stroke="#000" stroke-opacity="0" fill-opacity="0"/><use xlink:href="#m" transform="matrix(1,0,0,1,405,665) translate(17.44444444444445 17.34722222222222)"/><use xlink:href="#n" transform="matrix(1,0,0,1,405,665) translate(3.1234567901234627 38.68055555555556)"/><path d="M500 946a6 6 0 0 1 6-6h128a6 6 0 0 1 6 6v48a6 6 0 0 1-6 6H506a6 6 0 0 1-6-6z" stroke="#000" stroke-opacity="0" fill-opacity="0"/><use xlink:href="#o" transform="matrix(1,0,0,1,505,945) translate(2.65432098765433 29.84722222222222)"/><use xlink:href="#p" transform="matrix(1,0,0,1,505,945) translate(43.592592592592595 29.84722222222222)"/><path d="M1039 691v63a6 6 0 0 1-6 6H596.88" stroke="#3a414a" fill="none"/><path d="M1039.5 691h-1v-.5h1z" stroke="#3a414a" stroke-width=".05" fill="#3a414a"/><path d="M582.12 760l14.26-4.63v9.26z" stroke="#3a414a" fill="#3a414a"/><path d="M920 696a6 6 0 0 1 6-6h128a6 6 0 0 1 6 6v48a6 6 0 0 1-6 6H926a6 6 0 0 1-6-6z" stroke="#000" stroke-opacity="0" fill-opacity="0"/><use xlink:href="#q" transform="matrix(1,0,0,1,925,695) translate(32.45679012345679 17.34722222222222)"/><use xlink:href="#n" transform="matrix(1,0,0,1,925,695) translate(23.123456790123463 38.68055555555556)"/><path d="M1039 691v63a6 6 0 0 1-6 6H646a6 6 0 0 1-6-6V626a6 6 0 0 0-6-6h-37.12" stroke="#3a414a" fill="none"/><path d="M1039.5 691h-1v-.5h1z" stroke="#3a414a" stroke-width=".05" fill="#3a414a"/><path d="M582.12 620l14.26-4.63v9.26z" stroke="#3a414a" fill="#3a414a"/><path d="M399.5 690H356a6 6 0 0 1-6-6V256a6 6 0 0 1 6-6h358a6 6 0 0 1 6 6v27.62" stroke="#3a414a" fill="none"/><path d="M400 690.5h-.5v-1h.5z" stroke="#3a414a" stroke-width=".05" fill="#3a414a"/><path d="M720 298.38l-4.63-14.26h9.26z" stroke="#3a414a" fill="#3a414a"/><path d="M720 696a6 6 0 0 1 6-6h128a6 6 0 0 1 6 6v48a6 6 0 0 1-6 6H726a6 6 0 0 1-6-6z" stroke="#000" stroke-opacity="0" fill-opacity="0"/><use xlink:href="#r" transform="matrix(1,0,0,1,725,695) translate(45.81481481481482 17.34722222222222)"/><use xlink:href="#n" transform="matrix(1,0,0,1,725,695) translate(23.123456790123463 38.68055555555556)"/><path d="M500 801v13a6 6 0 0 0 6 6h208a6 6 0 0 1 6 6v197.12" stroke="#3a414a" fill="none"/><path d="M500.5 801h-1v-.5h1z" stroke="#3a414a" stroke-width=".05" fill="#3a414a"/><path d="M720 1037.88l-4.63-14.26h9.26z" stroke="#3a414a" fill="#3a414a"/><path d="M400 799a6 6 0 0 1 6-6h88a6 6 0 0 1 6 6v62a6 6 0 0 1-6 6h-88a6 6 0 0 1-6-6z" stroke="#000" stroke-opacity="0" fill-opacity="0"/><use xlink:href="#s" transform="matrix(1,0,0,1,405,798) translate(2.6296296296296404 26.22222222222222)"/><use xlink:href="#n" transform="matrix(1,0,0,1,405,798) translate(3.1234567901234627 47.55555555555555)"/><path d="M815.43 873a6 6 0 0 1 6-6h228a6 6 0 0 1 6 6v138a6 6 0 0 1-6 6h-228a6 6 0 0 1-6-6z" stroke="#000" stroke-opacity="0" fill-opacity="0"/><use xlink:href="#t" transform="matrix(1,0,0,1,820.4330708661416,872) translate(27.96296296296299 31.72222222222222)"/><use xlink:href="#u" transform="matrix(1,0,0,1,820.4330708661416,872) translate(61.0493827160494 31.72222222222222)"/><use xlink:href="#v" transform="matrix(1,0,0,1,820.4330708661416,872) translate(19.617283950617292 53.05555555555555)"/><use xlink:href="#w" transform="matrix(1,0,0,1,820.4330708661416,872) translate(53.641975308641975 53.05555555555555)"/><use xlink:href="#x" transform="matrix(1,0,0,1,820.4330708661416,872) translate(35.839506172839535 74.38888888888889)"/><use xlink:href="#y" transform="matrix(1,0,0,1,820.4330708661416,872) translate(66.95061728395063 74.38888888888889)"/><use xlink:href="#z" transform="matrix(1,0,0,1,820.4330708661416,872) translate(52.432098765432116 95.7222222222222)"/><use xlink:href="#A" transform="matrix(1,0,0,1,820.4330708661416,872) translate(87.54320987654322 95.7222222222222)"/><use xlink:href="#B" transform="matrix(1,0,0,1,820.4330708661416,872) translate(52.45679012345681 117.05555555555554)"/><use xlink:href="#C" transform="matrix(1,0,0,1,820.4330708661416,872) translate(81.64197530864199 117.05555555555554)"/><path d="M715.2 63.6a8 8 0 0 1 9.6 0l70.4 52.8a4.5 4.5 0 0 1 0 7.2l-70.4 52.8a8 8 0 0 1-9.6 0l-70.4-52.8a4.5 4.5 0 0 1 0-7.2z" stroke="#3a414a" fill-opacity="0"/><g><use xlink:href="#D" transform="matrix(1,0,0,1,645,65) translate(51.57907407407407 59.02777777777778)"/></g><path d="M720 179v16.5a6 6 0 0 1-6 6H505a6 6 0 0 0-6 6v75.62" stroke="#3a414a" fill="none"/><path d="M720 178.5l.5-.03v.54h-1v-.53z" stroke="#3a414a" stroke-width=".05" fill="#3a414a"/><path d="M499 297.88l-4.63-14.26h9.27z" stroke="#3a414a" fill="#3a414a"/><path d="M720 179v104.62" stroke="#3a414a" fill="none"/><path d="M720 178.5l.5-.03v.54h-1v-.53z" stroke="#3a414a" stroke-width=".05" fill="#3a414a"/><path d="M720 298.38l-4.63-14.26h9.26z" stroke="#3a414a" fill="#3a414a"/><defs><path fill="#3a414a" d="M75-131c50 2 93 3 93-48 0-46-48-41-93-41v89zm0 115c55 4 111 6 111-51 0-53-58-48-111-48v99zm148-52C223 24 102-3 10 0v-9l31-5v-208l-31-4v-10c77 6 193-24 194 56 0 33-20 48-48 54 36 5 67 20 67 58" id="E"/><path fill="#3a414a" d="M52-115c0 93 80 130 150 87l7-35h11l-1 55c-23 7-52 12-83 12C60 4 19-37 15-115c-5-113 97-141 201-114l1 51h-12l-5-30c-15-9-39-16-62-16-66 0-86 41-86 109" id="F"/><path fill="#3a414a" d="M152 0h-7L59-203v189l32 5v9H10v-9l31-5v-208l-31-4v-10h72l76 180 84-180h68v10l-31 4v208l31 5v9h-96v-9l32-5v-189" id="G"/><path fill="#3a414a" d="M55 0v-9l38-5v-207c-22 1-53 0-70 4l-5 37H7v-56h207v56h-12l-5-37-70-3v206l37 5v9H55" id="H"/><g id="a"><use transform="matrix(0.06172839506172839,0,0,0.06172839506172839,0,0)" xlink:href="#E"/><use transform="matrix(0.06172839506172839,0,0,0.06172839506172839,14.814814814814813,0)" xlink:href="#F"/><use transform="matrix(0.06172839506172839,0,0,0.06172839506172839,29.629629629629626,0)" xlink:href="#G"/><use transform="matrix(0.06172839506172839,0,0,0.06172839506172839,49.38271604938271,0)" xlink:href="#H"/></g><path fill="#3a414a" d="M124-13C89 8 26 15 26-45v-108c-8-3-24 2-21-12h50v118c-3 37 42 32 69 25v-131l-25-4v-8h54v153c8 3 24-2 21 12h-48" id="I"/><path fill="#3a414a" d="M65-12l28 4v8H7v-8l28-4v-226l-28-4v-8h58v238" id="J"/><path fill="#3a414a" d="M54-38c-1 25 24 26 44 20v12C71 10 25 9 25-35v-115H4c-2-14 14-10 21-15l18-38h11v38h38v15H54v112" id="K"/><path fill="#3a414a" d="M47-200c-23 0-25-39 0-38 13 0 18 7 20 19-1 11-8 19-20 19zM65-12l28 4v8H8v-8l28-4v-141l-24-4v-8h53v153" id="L"/><path fill="#3a414a" d="M166-85c3 67-44 102-111 85l1 64 29 4v9H6v-9l21-4v-217c-7-3-22 1-19-12h46l1 9c11-8 26-14 45-14 47 2 64 36 66 85zM56-13c53 14 83-14 78-72 7-53-33-79-78-60v132" id="M"/><path fill="#3a414a" d="M84-170c49 0 66 33 63 87H46c-8 60 38 80 95 63v10C128-2 108 4 88 4 34 4 14-29 14-84c-1-54 22-86 70-86zm33 73c12-57-57-82-69-24-1 7-2 15-2 24h71" id="N"/><path fill="#3a414a" d="M156-12c7 3 23-1 20 12h-75v-8l22-4-38-58-45 58 23 4v8H3v-8l19-3 55-71-48-71c-7-3-23 1-20-12h75v8l-22 4 32 48 37-48-23-4v-8h59v8l-19 3-46 60" id="O"/><path fill="#3a414a" d="M13-81c0-71 46-101 114-85l-1-72-28-4v-8h57v238c8 3 24-2 21 12h-47l-2-12C80 23 13-1 13-81zm77-74c-37 1-44 33-45 74 0 38 9 66 45 66 14 0 27-3 36-7v-130c-10-1-24-3-36-3" id="P"/><path fill="#3a414a" d="M178-68c0 79-95 82-154 59v-54h12c1 35 22 52 60 52 50 0 69-58 33-82-39-24-105-21-105-85 0-67 86-66 142-53v49h-12l-6-29c-31-27-121-7-89 42 28 43 119 24 119 101" id="Q"/><path fill="#3a414a" d="M13-82c-2-68 46-101 114-84 8-3 15-8 28-7V64l18 4v9h-70v-9l23-4c1-25-2-53 2-75-11 8-27 15-47 15-49-1-66-35-68-86zm113-70c-53-13-86 12-81 70-6 54 34 80 81 61v-131" id="R"/><path fill="#3a414a" d="M125-118c4-37-41-34-68-26v132l23 4v8H8C5-13 21-9 28-12v-141c-7-3-23 1-20-12h47l2 13c31-23 98-29 98 31v109c7 3 23-1 20 12h-72v-8l22-4v-106" id="S"/><path fill="#3a414a" d="M45-84c0 64 52 80 104 63 1 25-30 25-55 25-56 0-80-32-80-88 0-76 62-98 131-80v46h-10c-5-15-4-31-23-35-47-10-67 21-67 69" id="T"/><g id="b"><use transform="matrix(0.06172839506172839,0,0,0.06172839506172839,0,0)" xlink:href="#G"/><use transform="matrix(0.06172839506172839,0,0,0.06172839506172839,19.753086419753085,0)" xlink:href="#I"/><use transform="matrix(0.06172839506172839,0,0,0.06172839506172839,30.864197530864196,0)" xlink:href="#J"/><use transform="matrix(0.06172839506172839,0,0,0.06172839506172839,37.03703703703704,0)" xlink:href="#K"/><use transform="matrix(0.06172839506172839,0,0,0.06172839506172839,43.20987654320988,0)" xlink:href="#L"/><use transform="matrix(0.06172839506172839,0,0,0.06172839506172839,49.38271604938272,0)" xlink:href="#M"/><use transform="matrix(0.06172839506172839,0,0,0.06172839506172839,60.49382716049384,0)" xlink:href="#J"/><use transform="matrix(0.06172839506172839,0,0,0.06172839506172839,66.66666666666667,0)" xlink:href="#N"/><use transform="matrix(0.06172839506172839,0,0,0.06172839506172839,76.48148148148148,0)" xlink:href="#O"/><use transform="matrix(0.06172839506172839,0,0,0.06172839506172839,87.5925925925926,0)" xlink:href="#N"/><use transform="matrix(0.06172839506172839,0,0,0.06172839506172839,97.4074074074074,0)" xlink:href="#P"/><use transform="matrix(0.06172839506172839,0,0,0.06172839506172839,108.51851851851852,0)" xlink:href="#Q"/><use transform="matrix(0.06172839506172839,0,0,0.06172839506172839,120.8641975308642,0)" xlink:href="#N"/><use transform="matrix(0.06172839506172839,0,0,0.06172839506172839,130.679012345679,0)" xlink:href="#R"/><use transform="matrix(0.06172839506172839,0,0,0.06172839506172839,141.79012345679013,0)" xlink:href="#I"/><use transform="matrix(0.06172839506172839,0,0,0.06172839506172839,152.90123456790124,0)" xlink:href="#N"/><use transform="matrix(0.06172839506172839,0,0,0.06172839506172839,162.71604938271605,0)" xlink:href="#S"/><use transform="matrix(0.06172839506172839,0,0,0.06172839506172839,173.82716049382717,0)" xlink:href="#T"/><use transform="matrix(0.06172839506172839,0,0,0.06172839506172839,183.64197530864197,0)" xlink:href="#N"/></g><g id="c"><use transform="matrix(0.06172839506172839,0,0,0.06172839506172839,0,0)" xlink:href="#Q"/><use transform="matrix(0.06172839506172839,0,0,0.06172839506172839,12.345679012345679,0)" xlink:href="#F"/><use transform="matrix(0.06172839506172839,0,0,0.06172839506172839,27.160493827160494,0)" xlink:href="#Q"/><use transform="matrix(0.06172839506172839,0,0,0.06172839506172839,39.50617283950617,0)" xlink:href="#H"/></g><path fill="#3a414a" d="M10-9l31-5v-208l-31-4v-10h177v57h-11l-6-38c-28-4-63-3-95-3v92h63l6-28h11v73h-11l-6-29H75v96l105-3 10-43h12l-3 62H10v-9" id="U"/><path fill="#3a414a" d="M126-118c4-37-42-32-68-25v131l24 4v8H8C5-13 21-9 28-12v-141c-7-3-23 1-20-12h48l1 13c22-15 77-30 92 2 32-22 104-36 104 29v109c8 3 24-2 21 12h-75v-8l25-4v-106c3-39-45-31-72-24 7 37 1 88 3 130l25 4v8h-78v-8l24-4v-106" id="V"/><path fill="#3a414a" d="M32-163c41-10 102-14 102 39v112c8 3 24-2 21 12h-45l-4-17C83 13 3 13 13-46c-2-50 45-50 92-51 4-36-5-70-42-56-6 2-12 4-16 6-4 7 0 23-15 20v-36zM42-47c0 41 41 33 63 22v-59c-34 1-63-1-63 37" id="W"/><path fill="#3a414a" d="M57-145c16-10 35-24 60-25v45c-19 1-8-30-40-17l-20 6v124l29 4v8H7v-8l21-4v-141c-8-3-24 2-21-12h48" id="X"/><path fill="#3a414a" d="M161-154L85 37C75 66 49 86 8 75V39c18-2 6 24 29 21 30-4 38-32 47-58L21-153c-7-3-20 0-17-12h77v8l-26 4 45 116 43-116-26-4v-8h62v8" id="Y"/><g id="d"><use transform="matrix(0.06172839506172839,0,0,0.06172839506172839,0,0)" xlink:href="#U"/><use transform="matrix(0.06172839506172839,0,0,0.06172839506172839,13.518518518518517,0)" xlink:href="#J"/><use transform="matrix(0.06172839506172839,0,0,0.06172839506172839,19.691358024691358,0)" xlink:href="#N"/><use transform="matrix(0.06172839506172839,0,0,0.06172839506172839,29.50617283950617,0)" xlink:href="#V"/><use transform="matrix(0.06172839506172839,0,0,0.06172839506172839,46.79012345679012,0)" xlink:href="#N"/><use transform="matrix(0.06172839506172839,0,0,0.06172839506172839,56.60493827160494,0)" xlink:href="#S"/><use transform="matrix(0.06172839506172839,0,0,0.06172839506172839,67.71604938271605,0)" xlink:href="#K"/><use transform="matrix(0.06172839506172839,0,0,0.06172839506172839,73.88888888888889,0)" xlink:href="#W"/><use transform="matrix(0.06172839506172839,0,0,0.06172839506172839,83.7037037037037,0)" xlink:href="#X"/><use transform="matrix(0.06172839506172839,0,0,0.06172839506172839,91.04938271604938,0)" xlink:href="#Y"/></g><path fill="#3a414a" d="M134-16c44-1 70-21 70-64v-142l-32-4v-10h80v10l-30 4v141c0 57-33 84-91 85-58 0-93-26-93-82v-144l-30-4v-10h94v10l-30 4c7 82-31 209 62 206" id="Z"/><g id="e"><use transform="matrix(0.06172839506172839,0,0,0.06172839506172839,0,0)" xlink:href="#Z"/><use transform="matrix(0.06172839506172839,0,0,0.06172839506172839,15.987654320987653,0)" xlink:href="#F"/><use transform="matrix(0.06172839506172839,0,0,0.06172839506172839,30.80246913580247,0)" xlink:href="#G"/><use transform="matrix(0.06172839506172839,0,0,0.06172839506172839,50.55555555555556,0)" xlink:href="#H"/></g><g id="f"><use transform="matrix(0.06172839506172839,0,0,0.06172839506172839,0,0)" xlink:href="#Z"/><use transform="matrix(0.06172839506172839,0,0,0.06172839506172839,15.987654320987653,0)" xlink:href="#F"/><use transform="matrix(0.06172839506172839,0,0,0.06172839506172839,30.80246913580247,0)" xlink:href="#Q"/><use transform="matrix(0.06172839506172839,0,0,0.06172839506172839,43.148148148148145,0)" xlink:href="#H"/></g><g id="g"><use transform="matrix(0.06172839506172839,0,0,0.06172839506172839,0,0)" xlink:href="#Q"/><use transform="matrix(0.06172839506172839,0,0,0.06172839506172839,12.345679012345679,0)" xlink:href="#K"/><use transform="matrix(0.06172839506172839,0,0,0.06172839506172839,18.51851851851852,0)" xlink:href="#W"/><use transform="matrix(0.06172839506172839,0,0,0.06172839506172839,28.333333333333336,0)" xlink:href="#S"/><use transform="matrix(0.06172839506172839,0,0,0.06172839506172839,39.44444444444444,0)" xlink:href="#P"/><use transform="matrix(0.06172839506172839,0,0,0.06172839506172839,50.55555555555556,0)" xlink:href="#W"/><use transform="matrix(0.06172839506172839,0,0,0.06172839506172839,60.370370370370374,0)" xlink:href="#X"/><use transform="matrix(0.06172839506172839,0,0,0.06172839506172839,67.71604938271605,0)" xlink:href="#P"/></g><path fill="#3a414a" d="M41-130c7 48 86 23 86 84 0 56-69 57-112 41v-40c20 0 9 29 31 31 35 19 77-26 41-50-27-18-72-13-72-59 0-50 58-52 100-41v36c-19 1-8-25-28-25-21-7-50-1-46 23" id="aa"/><path fill="#3a414a" d="M90-170c52 0 76 32 76 87 0 54-24 87-77 87-51 0-75-34-75-87 0-54 24-87 76-87zM89-10c39 0 46-35 46-73 0-39-7-73-46-73-39 1-44 34-44 73s6 72 44 73" id="ab"/><g id="h"><use transform="matrix(0.06172839506172839,0,0,0.06172839506172839,0,0)" xlink:href="#F"/><use transform="matrix(0.06172839506172839,0,0,0.06172839506172839,14.814814814814813,0)" xlink:href="#I"/><use transform="matrix(0.06172839506172839,0,0,0.06172839506172839,25.925925925925924,0)" xlink:href="#aa"/><use transform="matrix(0.06172839506172839,0,0,0.06172839506172839,34.5679012345679,0)" xlink:href="#K"/><use transform="matrix(0.06172839506172839,0,0,0.06172839506172839,40.74074074074074,0)" xlink:href="#ab"/><use transform="matrix(0.06172839506172839,0,0,0.06172839506172839,51.85185185185185,0)" xlink:href="#V"/></g><g id="i"><use transform="matrix(0.06172839506172839,0,0,0.06172839506172839,0,0)" xlink:href="#F"/><use transform="matrix(0.06172839506172839,0,0,0.06172839506172839,14.814814814814813,0)" xlink:href="#I"/><use transform="matrix(0.06172839506172839,0,0,0.06172839506172839,25.925925925925924,0)" xlink:href="#aa"/><use transform="matrix(0.06172839506172839,0,0,0.06172839506172839,34.5679012345679,0)" xlink:href="#K"/><use transform="matrix(0.06172839506172839,0,0,0.06172839506172839,40.74074074074074,0)" xlink:href="#ab"/><use transform="matrix(0.06172839506172839,0,0,0.06172839506172839,51.85185185185185,0)" xlink:href="#V"/><use transform="matrix(0.06172839506172839,0,0,0.06172839506172839,69.1358024691358,0)" xlink:href="#Q"/><use transform="matrix(0.06172839506172839,0,0,0.06172839506172839,81.48148148148148,0)" xlink:href="#H"/></g><g id="j"><use transform="matrix(0.06172839506172839,0,0,0.06172839506172839,0,0)" xlink:href="#F"/><use transform="matrix(0.06172839506172839,0,0,0.06172839506172839,14.814814814814813,0)" xlink:href="#I"/><use transform="matrix(0.06172839506172839,0,0,0.06172839506172839,25.925925925925924,0)" xlink:href="#aa"/><use transform="matrix(0.06172839506172839,0,0,0.06172839506172839,34.5679012345679,0)" xlink:href="#K"/><use transform="matrix(0.06172839506172839,0,0,0.06172839506172839,40.74074074074074,0)" xlink:href="#ab"/><use transform="matrix(0.06172839506172839,0,0,0.06172839506172839,51.85185185185185,0)" xlink:href="#V"/><use transform="matrix(0.06172839506172839,0,0,0.06172839506172839,69.1358024691358,0)" xlink:href="#G"/><use transform="matrix(0.06172839506172839,0,0,0.06172839506172839,88.88888888888889,0)" xlink:href="#H"/></g><path fill="#3a414a" d="M130-224c-62 0-78 43-78 106 0 64 16 108 78 108s78-45 78-108-16-106-78-106zm0 228C53 4 15-39 15-118c-1-80 37-120 115-120s115 42 115 120C245-39 207 4 130 4" id="ac"/><path fill="#3a414a" d="M10 0v-8l90-143c-23 2-54-4-70 6-5 8 1 26-14 24v-44h122v8L47-14c29-2 65 3 86-8l9-35h8l-5 57H10" id="ad"/><g id="k"><use transform="matrix(0.049382716049382706,0,0,0.049382716049382706,0,0)" xlink:href="#ac"/><use transform="matrix(0.049382716049382706,0,0,0.049382716049382706,12.790123456790122,0)" xlink:href="#M"/><use transform="matrix(0.049382716049382706,0,0,0.049382716049382706,21.67901234567901,0)" xlink:href="#K"/><use transform="matrix(0.049382716049382706,0,0,0.049382716049382706,26.617283950617278,0)" xlink:href="#L"/><use transform="matrix(0.049382716049382706,0,0,0.049382716049382706,31.55555555555555,0)" xlink:href="#V"/><use transform="matrix(0.049382716049382706,0,0,0.049382716049382706,45.38271604938271,0)" xlink:href="#L"/><use transform="matrix(0.049382716049382706,0,0,0.049382716049382706,50.32098765432098,0)" xlink:href="#ad"/><use transform="matrix(0.049382716049382706,0,0,0.049382716049382706,58.17283950617283,0)" xlink:href="#N"/></g><g id="l"><use transform="matrix(0.049382716049382706,0,0,0.049382716049382706,0,0)" xlink:href="#E"/><use transform="matrix(0.049382716049382706,0,0,0.049382716049382706,11.85185185185185,0)" xlink:href="#X"/><use transform="matrix(0.049382716049382706,0,0,0.049382716049382706,17.728395061728392,0)" xlink:href="#ab"/><use transform="matrix(0.049382716049382706,0,0,0.049382716049382706,26.617283950617278,0)" xlink:href="#W"/><use transform="matrix(0.049382716049382706,0,0,0.049382716049382706,34.469135802469125,0)" xlink:href="#P"/><use transform="matrix(0.049382716049382706,0,0,0.049382716049382706,43.35802469135801,0)" xlink:href="#T"/><use transform="matrix(0.049382716049382706,0,0,0.049382716049382706,51.20987654320986,0)" xlink:href="#W"/><use transform="matrix(0.049382716049382706,0,0,0.049382716049382706,59.06172839506171,0)" xlink:href="#aa"/><use transform="matrix(0.049382716049382706,0,0,0.049382716049382706,65.97530864197529,0)" xlink:href="#K"/></g><path fill="#3a414a" d="M77-14l30 5v9H13v-9l30-5v-208l-30-4v-10h94v10l-30 4v208" id="ae"/><g id="m"><use transform="matrix(0.049382716049382706,0,0,0.049382716049382706,0,0)" xlink:href="#ae"/><use transform="matrix(0.049382716049382706,0,0,0.049382716049382706,5.876543209876542,0)" xlink:href="#S"/><use transform="matrix(0.049382716049382706,0,0,0.049382716049382706,14.765432098765428,0)" xlink:href="#K"/><use transform="matrix(0.049382716049382706,0,0,0.049382716049382706,19.703703703703702,0)" xlink:href="#N"/><use transform="matrix(0.049382716049382706,0,0,0.049382716049382706,27.555555555555557,0)" xlink:href="#X"/><use transform="matrix(0.049382716049382706,0,0,0.049382716049382706,33.432098765432094,0)" xlink:href="#S"/><use transform="matrix(0.049382716049382706,0,0,0.049382716049382706,42.32098765432098,0)" xlink:href="#W"/><use transform="matrix(0.049382716049382706,0,0,0.049382716049382706,50.17283950617283,0)" xlink:href="#J"/></g><path fill="#3a414a" d="M75-17c87 13 134-18 134-103 0-78-51-106-134-100v203zm171-102C246 5 139 7 10 0v-9l31-5v-208l-31-4v-10h107c82 0 129 35 129 117" id="af"/><g id="n"><use transform="matrix(0.049382716049382706,0,0,0.049382716049382706,0,0)" xlink:href="#af"/><use transform="matrix(0.049382716049382706,0,0,0.049382716049382706,12.790123456790122,0)" xlink:href="#N"/><use transform="matrix(0.049382716049382706,0,0,0.049382716049382706,20.64197530864197,0)" xlink:href="#T"/><use transform="matrix(0.049382716049382706,0,0,0.049382716049382706,28.493827160493822,0)" xlink:href="#ab"/><use transform="matrix(0.049382716049382706,0,0,0.049382716049382706,37.38271604938271,0)" xlink:href="#V"/><use transform="matrix(0.049382716049382706,0,0,0.049382716049382706,51.209876543209866,0)" xlink:href="#M"/><use transform="matrix(0.049382716049382706,0,0,0.049382716049382706,60.09876543209875,0)" xlink:href="#ab"/><use transform="matrix(0.049382716049382706,0,0,0.049382716049382706,68.98765432098764,0)" xlink:href="#aa"/><use transform="matrix(0.049382716049382706,0,0,0.049382716049382706,75.90123456790123,0)" xlink:href="#N"/></g><path fill="#3a414a" d="M81-9v9H4v-9l26-5 81-224h33l83 224 30 5v9h-99v-9l31-5-23-68H73L49-14zm38-203L78-98h82" id="ag"/><g id="o"><use transform="matrix(0.049382716049382706,0,0,0.049382716049382706,0,0)" xlink:href="#ag"/><use transform="matrix(0.049382716049382706,0,0,0.049382716049382706,12.790123456790122,0)" xlink:href="#E"/><use transform="matrix(0.049382716049382706,0,0,0.049382716049382706,24.64197530864197,0)" xlink:href="#F"/></g><g id="p"><use transform="matrix(0.049382716049382706,0,0,0.049382716049382706,0,0)" xlink:href="#af"/><use transform="matrix(0.049382716049382706,0,0,0.049382716049382706,12.790123456790122,0)" xlink:href="#N"/><use transform="matrix(0.049382716049382706,0,0,0.049382716049382706,20.64197530864197,0)" xlink:href="#T"/><use transform="matrix(0.049382716049382706,0,0,0.049382716049382706,28.493827160493822,0)" xlink:href="#ab"/><use transform="matrix(0.049382716049382706,0,0,0.049382716049382706,37.38271604938271,0)" xlink:href="#V"/><use transform="matrix(0.049382716049382706,0,0,0.049382716049382706,51.209876543209866,0)" xlink:href="#M"/><use transform="matrix(0.049382716049382706,0,0,0.049382716049382706,60.09876543209875,0)" xlink:href="#ab"/><use transform="matrix(0.049382716049382706,0,0,0.049382716049382706,68.98765432098764,0)" xlink:href="#aa"/><use transform="matrix(0.049382716049382706,0,0,0.049382716049382706,75.90123456790123,0)" xlink:href="#N"/></g><path fill="#3a414a" d="M13-71v-27h94v27H13" id="ah"/><g id="q"><use transform="matrix(0.049382716049382706,0,0,0.049382716049382706,0,0)" xlink:href="#F"/><use transform="matrix(0.049382716049382706,0,0,0.049382716049382706,11.85185185185185,0)" xlink:href="#ab"/><use transform="matrix(0.049382716049382706,0,0,0.049382716049382706,20.740740740740737,0)" xlink:href="#aa"/><use transform="matrix(0.049382716049382706,0,0,0.049382716049382706,27.654320987654316,0)" xlink:href="#ah"/><use transform="matrix(0.049382716049382706,0,0,0.049382716049382706,33.53086419753086,0)" xlink:href="#Q"/><use transform="matrix(0.049382716049382706,0,0,0.049382716049382706,43.407407407407405,0)" xlink:href="#L"/><use transform="matrix(0.049382716049382706,0,0,0.049382716049382706,48.34567901234568,0)" xlink:href="#S"/><use transform="matrix(0.049382716049382706,0,0,0.049382716049382706,57.23456790123457,0)" xlink:href="#N"/></g><g id="r"><use transform="matrix(0.049382716049382706,0,0,0.049382716049382706,0,0)" xlink:href="#U"/><use transform="matrix(0.049382716049382706,0,0,0.049382716049382706,10.814814814814813,0)" xlink:href="#I"/><use transform="matrix(0.049382716049382706,0,0,0.049382716049382706,19.703703703703702,0)" xlink:href="#J"/><use transform="matrix(0.049382716049382706,0,0,0.049382716049382706,24.641975308641975,0)" xlink:href="#N"/><use transform="matrix(0.049382716049382706,0,0,0.049382716049382706,32.49382716049382,0)" xlink:href="#X"/></g><path fill="#3a414a" d="M199-173c-1 36-21 56-49 65l64 94 26 5v9h-57l-66-103H75v89l35 5v9H13v-9l28-5v-208l-31-4v-10c80 4 190-20 189 63zM75-119c50 2 89-1 89-51 0-49-39-52-89-50v101" id="ai"/><path fill="#3a414a" d="M164-154L98 4H85L17-153c-7-3-20 0-17-12h77v8l-26 4L99-38l46-115-26-4v-8h61v8" id="aj"/><g id="s"><use transform="matrix(0.049382716049382706,0,0,0.049382716049382706,0,0)" xlink:href="#ai"/><use transform="matrix(0.049382716049382706,0,0,0.049382716049382706,11.85185185185185,0)" xlink:href="#N"/><use transform="matrix(0.049382716049382706,0,0,0.049382716049382706,19.7037037037037,0)" xlink:href="#T"/><use transform="matrix(0.049382716049382706,0,0,0.049382716049382706,27.55555555555555,0)" xlink:href="#I"/><use transform="matrix(0.049382716049382706,0,0,0.049382716049382706,36.444444444444436,0)" xlink:href="#X"/><use transform="matrix(0.049382716049382706,0,0,0.049382716049382706,42.32098765432098,0)" xlink:href="#aa"/><use transform="matrix(0.049382716049382706,0,0,0.049382716049382706,49.234567901234556,0)" xlink:href="#L"/><use transform="matrix(0.049382716049382706,0,0,0.049382716049382706,54.17283950617283,0)" xlink:href="#aj"/><use transform="matrix(0.049382716049382706,0,0,0.049382716049382706,63.061728395061714,0)" xlink:href="#N"/><use transform="matrix(0.049382716049382706,0,0,0.049382716049382706,70.91358024691357,0)" xlink:href="#J"/><use transform="matrix(0.049382716049382706,0,0,0.049382716049382706,75.85185185185183,0)" xlink:href="#Y"/></g><path fill="#3a414a" d="M50-37c14 0 21 9 21 21S62 5 50 5C37 5 28-4 28-16s8-21 22-21zm0-132c12 0 21 9 21 21 0 13-9 22-21 22-13 0-22-9-22-22 0-12 9-21 22-21" id="ak"/><g id="t"><use transform="matrix(0.049382716049382706,0,0,0.049382716049382706,0,0)" xlink:href="#E"/><use transform="matrix(0.049382716049382706,0,0,0.049382716049382706,11.85185185185185,0)" xlink:href="#F"/><use transform="matrix(0.049382716049382706,0,0,0.049382716049382706,23.7037037037037,0)" xlink:href="#ak"/></g><g id="u"><use transform="matrix(0.049382716049382706,0,0,0.049382716049382706,0,0)" xlink:href="#E"/><use transform="matrix(0.049382716049382706,0,0,0.049382716049382706,11.85185185185185,0)" xlink:href="#ab"/><use transform="matrix(0.049382716049382706,0,0,0.049382716049382706,20.740740740740737,0)" xlink:href="#ab"/><use transform="matrix(0.049382716049382706,0,0,0.049382716049382706,29.629629629629623,0)" xlink:href="#J"/><use transform="matrix(0.049382716049382706,0,0,0.049382716049382706,34.5679012345679,0)" xlink:href="#N"/><use transform="matrix(0.049382716049382706,0,0,0.049382716049382706,42.419753086419746,0)" xlink:href="#W"/><use transform="matrix(0.049382716049382706,0,0,0.049382716049382706,50.271604938271594,0)" xlink:href="#S"/><use transform="matrix(0.049382716049382706,0,0,0.049382716049382706,59.16049382716048,0)" xlink:href="#ah"/><use transform="matrix(0.049382716049382706,0,0,0.049382716049382706,65.03703703703702,0)" xlink:href="#F"/><use transform="matrix(0.049382716049382706,0,0,0.049382716049382706,76.88888888888887,0)" xlink:href="#ab"/><use transform="matrix(0.049382716049382706,0,0,0.049382716049382706,85.77777777777776,0)" xlink:href="#S"/><use transform="matrix(0.049382716049382706,0,0,0.049382716049382706,94.66666666666664,0)" xlink:href="#K"/><use transform="matrix(0.049382716049382706,0,0,0.049382716049382706,99.60493827160491,0)" xlink:href="#X"/><use transform="matrix(0.049382716049382706,0,0,0.049382716049382706,105.48148148148147,0)" xlink:href="#ab"/><use transform="matrix(0.049382716049382706,0,0,0.049382716049382706,114.37037037037035,0)" xlink:href="#J"/><use transform="matrix(0.049382716049382706,0,0,0.049382716049382706,119.30864197530859,0)" xlink:href="#J"/><use transform="matrix(0.049382716049382706,0,0,0.049382716049382706,124.24691358024687,0)" xlink:href="#N"/><use transform="matrix(0.049382716049382706,0,0,0.049382716049382706,132.09876543209873,0)" xlink:href="#P"/></g><g id="v"><use transform="matrix(0.049382716049382706,0,0,0.049382716049382706,0,0)" xlink:href="#Z"/><use transform="matrix(0.049382716049382706,0,0,0.049382716049382706,12.790123456790122,0)" xlink:href="#F"/><use transform="matrix(0.049382716049382706,0,0,0.049382716049382706,24.64197530864197,0)" xlink:href="#ak"/></g><path fill="#3a414a" d="M103-236c-39-15-35 32-34 71h44v15H69v136l35 6v8H15v-8l25-6v-136H11v-9l29-7c-6-59 23-100 80-84v36c-15 2-12-14-17-22" id="al"/><g id="w"><use transform="matrix(0.049382716049382706,0,0,0.049382716049382706,0,0)" xlink:href="#Z"/><use transform="matrix(0.049382716049382706,0,0,0.049382716049382706,12.790123456790122,0)" xlink:href="#S"/><use transform="matrix(0.049382716049382706,0,0,0.049382716049382706,21.67901234567901,0)" xlink:href="#L"/><use transform="matrix(0.049382716049382706,0,0,0.049382716049382706,26.617283950617278,0)" xlink:href="#al"/><use transform="matrix(0.049382716049382706,0,0,0.049382716049382706,32.49382716049382,0)" xlink:href="#ab"/><use transform="matrix(0.049382716049382706,0,0,0.049382716049382706,41.38271604938271,0)" xlink:href="#X"/><use transform="matrix(0.049382716049382706,0,0,0.049382716049382706,47.25925925925925,0)" xlink:href="#V"/><use transform="matrix(0.049382716049382706,0,0,0.049382716049382706,61.08641975308641,0)" xlink:href="#J"/><use transform="matrix(0.049382716049382706,0,0,0.049382716049382706,66.02469135802468,0)" xlink:href="#Y"/><use transform="matrix(0.049382716049382706,0,0,0.049382716049382706,74.91358024691357,0)" xlink:href="#ah"/><use transform="matrix(0.049382716049382706,0,0,0.049382716049382706,80.79012345679011,0)" xlink:href="#F"/><use transform="matrix(0.049382716049382706,0,0,0.049382716049382706,92.64197530864196,0)" xlink:href="#ab"/><use transform="matrix(0.049382716049382706,0,0,0.049382716049382706,101.53086419753085,0)" xlink:href="#S"/><use transform="matrix(0.049382716049382706,0,0,0.049382716049382706,110.41975308641973,0)" xlink:href="#K"/><use transform="matrix(0.049382716049382706,0,0,0.049382716049382706,115.358024691358,0)" xlink:href="#X"/><use transform="matrix(0.049382716049382706,0,0,0.049382716049382706,121.23456790123454,0)" xlink:href="#ab"/><use transform="matrix(0.049382716049382706,0,0,0.049382716049382706,130.12345679012344,0)" xlink:href="#J"/><use transform="matrix(0.049382716049382706,0,0,0.049382716049382706,135.06172839506172,0)" xlink:href="#J"/><use transform="matrix(0.049382716049382706,0,0,0.049382716049382706,140,0)" xlink:href="#N"/><use transform="matrix(0.049382716049382706,0,0,0.049382716049382706,147.85185185185185,0)" xlink:href="#P"/></g><g id="x"><use transform="matrix(0.049382716049382706,0,0,0.049382716049382706,0,0)" xlink:href="#Q"/><use transform="matrix(0.049382716049382706,0,0,0.049382716049382706,9.87654320987654,0)" xlink:href="#F"/><use transform="matrix(0.049382716049382706,0,0,0.049382716049382706,21.728395061728392,0)" xlink:href="#ak"/></g><path fill="#3a414a" d="M141-152c28 39 5 97-54 97-9 0-20-2-27-3L49-35c29 22 130-14 124 52-4 45-38 57-88 61C21 83-8 26 45-2 33-6 22-15 21-31l28-31c-19-9-28-26-28-51-2-51 53-65 100-52l38-20 7 8zM85 64c35 0 61-11 61-42 0-35-57-17-89-21-9 8-16 19-17 34 0 25 19 29 45 29zM52-113c1 26 7 46 35 44 28-1 34-16 35-44 0-26-6-43-34-43s-36 17-36 43" id="am"/><g id="y"><use transform="matrix(0.049382716049382706,0,0,0.049382716049382706,0,0)" xlink:href="#Q"/><use transform="matrix(0.049382716049382706,0,0,0.049382716049382706,9.87654320987654,0)" xlink:href="#L"/><use transform="matrix(0.049382716049382706,0,0,0.049382716049382706,14.814814814814811,0)" xlink:href="#S"/><use transform="matrix(0.049382716049382706,0,0,0.049382716049382706,23.7037037037037,0)" xlink:href="#am"/><use transform="matrix(0.049382716049382706,0,0,0.049382716049382706,32.59259259259259,0)" xlink:href="#J"/><use transform="matrix(0.049382716049382706,0,0,0.049382716049382706,37.53086419753086,0)" xlink:href="#N"/><use transform="matrix(0.049382716049382706,0,0,0.049382716049382706,45.38271604938271,0)" xlink:href="#ah"/><use transform="matrix(0.049382716049382706,0,0,0.049382716049382706,51.25925925925925,0)" xlink:href="#F"/><use transform="matrix(0.049382716049382706,0,0,0.049382716049382706,63.1111111111111,0)" xlink:href="#ab"/><use transform="matrix(0.049382716049382706,0,0,0.049382716049382706,71.99999999999999,0)" xlink:href="#S"/><use transform="matrix(0.049382716049382706,0,0,0.049382716049382706,80.88888888888887,0)" xlink:href="#K"/><use transform="matrix(0.049382716049382706,0,0,0.049382716049382706,85.82716049382714,0)" xlink:href="#X"/><use transform="matrix(0.049382716049382706,0,0,0.049382716049382706,91.70370370370368,0)" xlink:href="#ab"/><use transform="matrix(0.049382716049382706,0,0,0.049382716049382706,100.59259259259257,0)" xlink:href="#J"/><use transform="matrix(0.049382716049382706,0,0,0.049382716049382706,105.53086419753082,0)" xlink:href="#J"/><use transform="matrix(0.049382716049382706,0,0,0.049382716049382706,110.4691358024691,0)" xlink:href="#N"/><use transform="matrix(0.049382716049382706,0,0,0.049382716049382706,118.32098765432094,0)" xlink:href="#P"/></g><g id="z"><use transform="matrix(0.049382716049382706,0,0,0.049382716049382706,0,0)" xlink:href="#G"/><use transform="matrix(0.049382716049382706,0,0,0.049382716049382706,15.802469135802466,0)" xlink:href="#H"/><use transform="matrix(0.049382716049382706,0,0,0.049382716049382706,25.72839506172839,0)" xlink:href="#ak"/></g><g id="A"><use transform="matrix(0.049382716049382706,0,0,0.049382716049382706,0,0)" xlink:href="#G"/><use transform="matrix(0.049382716049382706,0,0,0.049382716049382706,15.802469135802466,0)" xlink:href="#I"/><use transform="matrix(0.049382716049382706,0,0,0.049382716049382706,24.691358024691354,0)" xlink:href="#J"/><use transform="matrix(0.049382716049382706,0,0,0.049382716049382706,29.629629629629623,0)" xlink:href="#K"/><use transform="matrix(0.049382716049382706,0,0,0.049382716049382706,34.5679012345679,0)" xlink:href="#L"/><use transform="matrix(0.049382716049382706,0,0,0.049382716049382706,39.50617283950617,0)" xlink:href="#ah"/><use transform="matrix(0.049382716049382706,0,0,0.049382716049382706,45.382716049382715,0)" xlink:href="#H"/><use transform="matrix(0.049382716049382706,0,0,0.049382716049382706,54.96296296296296,0)" xlink:href="#W"/><use transform="matrix(0.049382716049382706,0,0,0.049382716049382706,62.81481481481482,0)" xlink:href="#X"/><use transform="matrix(0.049382716049382706,0,0,0.049382716049382706,68.34567901234567,0)" xlink:href="#am"/><use transform="matrix(0.049382716049382706,0,0,0.049382716049382706,77.23456790123456,0)" xlink:href="#N"/><use transform="matrix(0.049382716049382706,0,0,0.049382716049382706,85.0864197530864,0)" xlink:href="#K"/></g><g id="B"><use transform="matrix(0.049382716049382706,0,0,0.049382716049382706,0,0)" xlink:href="#Q"/><use transform="matrix(0.049382716049382706,0,0,0.049382716049382706,9.87654320987654,0)" xlink:href="#H"/><use transform="matrix(0.049382716049382706,0,0,0.049382716049382706,19.802469135802465,0)" xlink:href="#ak"/></g><g id="C"><use transform="matrix(0.049382716049382706,0,0,0.049382716049382706,0,0)" xlink:href="#Q"/><use transform="matrix(0.049382716049382706,0,0,0.049382716049382706,9.87654320987654,0)" xlink:href="#L"/><use transform="matrix(0.049382716049382706,0,0,0.049382716049382706,14.814814814814811,0)" xlink:href="#S"/><use transform="matrix(0.049382716049382706,0,0,0.049382716049382706,23.7037037037037,0)" xlink:href="#am"/><use transform="matrix(0.049382716049382706,0,0,0.049382716049382706,32.59259259259259,0)" xlink:href="#J"/><use transform="matrix(0.049382716049382706,0,0,0.049382716049382706,37.53086419753086,0)" xlink:href="#N"/><use transform="matrix(0.049382716049382706,0,0,0.049382716049382706,45.38271604938271,0)" xlink:href="#ah"/><use transform="matrix(0.049382716049382706,0,0,0.049382716049382706,51.25925925925925,0)" xlink:href="#H"/><use transform="matrix(0.049382716049382706,0,0,0.049382716049382706,60.83950617283949,0)" xlink:href="#W"/><use transform="matrix(0.049382716049382706,0,0,0.049382716049382706,68.69135802469134,0)" xlink:href="#X"/><use transform="matrix(0.049382716049382706,0,0,0.049382716049382706,74.2222222222222,0)" xlink:href="#am"/><use transform="matrix(0.049382716049382706,0,0,0.049382716049382706,83.11111111111109,0)" xlink:href="#N"/><use transform="matrix(0.049382716049382706,0,0,0.049382716049382706,90.96296296296293,0)" xlink:href="#K"/></g><g id="D"><use transform="matrix(0.06172839506172839,0,0,0.06172839506172839,0,0)" xlink:href="#ae"/><use transform="matrix(0.06172839506172839,0,0,0.06172839506172839,7.345679012345679,0)" xlink:href="#S"/><use transform="matrix(0.06172839506172839,0,0,0.06172839506172839,18.45679012345679,0)" xlink:href="#M"/><use transform="matrix(0.06172839506172839,0,0,0.06172839506172839,29.567901234567902,0)" xlink:href="#I"/><use transform="matrix(0.06172839506172839,0,0,0.06172839506172839,40.67901234567901,0)" xlink:href="#K"/></g></defs></g></svg>